<svg width="109" height="38" viewBox="0 0 109 38" fill="none" xmlns="http://www.w3.org/2000/svg">
<rect width="38" height="38" rx="12" fill="#3281FF"/>
<path d="M11.9024 12.9091H15.3158L18.9209 21.7045H19.0743L22.6794 12.9091H26.0928V26H23.4081V17.4794H23.2995L19.9117 25.9361H18.0835L14.6958 17.4474H14.5871V26H11.9024V12.9091Z" fill="white"/>
<path d="M50.896 28V11.08H53.608L59.824 25.072H59.08L65.296 11.08H67.984V28H65.176V15.448H66.04L60.352 28H58.504L52.816 15.448H53.704V28H50.896ZM77.1548 28.24C75.9068 28.24 74.8268 27.984 73.9148 27.472C73.0028 26.96 72.2908 26.232 71.7788 25.288C71.2828 24.344 71.0348 23.224 71.0348 21.928C71.0348 20.632 71.2828 19.52 71.7788 18.592C72.2908 17.648 73.0028 16.92 73.9148 16.408C74.8268 15.896 75.9068 15.64 77.1548 15.64C78.4028 15.64 79.4828 15.896 80.3948 16.408C81.3228 16.92 82.0348 17.648 82.5308 18.592C83.0428 19.52 83.2988 20.632 83.2988 21.928C83.2988 23.224 83.0428 24.344 82.5308 25.288C82.0348 26.232 81.3228 26.96 80.3948 27.472C79.4828 27.984 78.4028 28.24 77.1548 28.24ZM77.1548 25.936C78.0988 25.936 78.8508 25.608 79.4108 24.952C79.9708 24.28 80.2508 23.272 80.2508 21.928C80.2508 20.584 79.9708 19.584 79.4108 18.928C78.8508 18.272 78.0988 17.944 77.1548 17.944C76.2108 17.944 75.4588 18.272 74.8988 18.928C74.3388 19.584 74.0588 20.584 74.0588 21.928C74.0588 23.272 74.3388 24.28 74.8988 24.952C75.4588 25.608 76.2108 25.936 77.1548 25.936ZM90.6055 28.24C89.5175 28.24 88.4935 28.112 87.5335 27.856C86.5895 27.6 85.7975 27.232 85.1575 26.752L85.9975 24.784C86.5895 25.216 87.2775 25.544 88.0615 25.768C88.8615 25.992 89.7015 26.104 90.5815 26.104C91.6055 26.104 92.3495 25.968 92.8135 25.696C93.2935 25.408 93.5335 24.992 93.5335 24.448C93.5335 23.936 93.3495 23.552 92.9815 23.296C92.6135 23.024 92.0695 22.888 91.3495 22.888H88.2055V20.824H91.0615C91.7175 20.824 92.2215 20.696 92.5735 20.44C92.9255 20.184 93.1015 19.824 93.1015 19.36C93.1015 18.864 92.8855 18.472 92.4535 18.184C92.0375 17.896 91.3495 17.752 90.3895 17.752C89.5575 17.752 88.7975 17.856 88.1095 18.064C87.4215 18.256 86.7735 18.544 86.1655 18.928L85.3495 17.056C86.0055 16.592 86.7975 16.24 87.7255 16C88.6695 15.76 89.6935 15.64 90.7975 15.64C92.4135 15.64 93.6535 15.936 94.5175 16.528C95.3815 17.12 95.8135 17.96 95.8135 19.048C95.8135 19.784 95.5575 20.416 95.0455 20.944C94.5495 21.472 93.8775 21.8 93.0295 21.928V21.592C94.0215 21.656 94.8055 21.952 95.3815 22.48C95.9575 23.008 96.2455 23.72 96.2455 24.616C96.2455 25.72 95.7575 26.6 94.7815 27.256C93.8055 27.912 92.4135 28.24 90.6055 28.24ZM98.8681 28V15.88H107.964V18.232H101.868V28H98.8681Z" fill="#333333"/>
</svg>
