<svg width="88" height="88" viewBox="0 0 88 88" fill="none" xmlns="http://www.w3.org/2000/svg">
<rect x="0.5" y="0.5" width="87" height="87" rx="43.5" fill="url(#paint0_linear_33_31543)"/>
<rect x="0.5" y="0.5" width="87" height="87" rx="43.5" stroke="url(#paint1_linear_33_31543)"/>
<g filter="url(#filter0_d_33_31543)">
<rect x="16" y="16" width="56" height="56" rx="28" fill="white"/>
<rect x="16.5" y="16.5" width="55" height="55" rx="27.5" stroke="#E2E4E9"/>
<path d="M35.5996 54.5002C35.5996 52.2724 36.4846 50.1358 38.0599 48.5605C39.6352 46.9852 41.7718 46.1002 43.9996 46.1002C46.2274 46.1002 48.364 46.9852 49.9393 48.5605C51.5146 50.1358 52.3996 52.2724 52.3996 54.5002H35.5996ZM43.9996 45.0502C40.5189 45.0502 37.6996 42.2309 37.6996 38.7502C37.6996 35.2694 40.5189 32.4502 43.9996 32.4502C47.4804 32.4502 50.2996 35.2694 50.2996 38.7502C50.2996 42.2309 47.4804 45.0502 43.9996 45.0502Z" fill="#525866"/>
</g>
<defs>
<filter id="filter0_d_33_31543" x="12" y="14" width="64" height="64" filterUnits="userSpaceOnUse" color-interpolation-filters="sRGB">
<feFlood flood-opacity="0" result="BackgroundImageFix"/>
<feColorMatrix in="SourceAlpha" type="matrix" values="0 0 0 0 0 0 0 0 0 0 0 0 0 0 0 0 0 0 127 0" result="hardAlpha"/>
<feOffset dy="2"/>
<feGaussianBlur stdDeviation="2"/>
<feColorMatrix type="matrix" values="0 0 0 0 0.105882 0 0 0 0 0.109804 0 0 0 0 0.113725 0 0 0 0.04 0"/>
<feBlend mode="normal" in2="BackgroundImageFix" result="effect1_dropShadow_33_31543"/>
<feBlend mode="normal" in="SourceGraphic" in2="effect1_dropShadow_33_31543" result="shape"/>
</filter>
<linearGradient id="paint0_linear_33_31543" x1="44" y1="0" x2="44" y2="88" gradientUnits="userSpaceOnUse">
<stop stop-color="#E4E5E7" stop-opacity="0.48"/>
<stop offset="1" stop-color="#F7F8F8" stop-opacity="0"/>
<stop offset="1" stop-color="#E4E5E7" stop-opacity="0"/>
</linearGradient>
<linearGradient id="paint1_linear_33_31543" x1="44" y1="0" x2="44" y2="88" gradientUnits="userSpaceOnUse">
<stop stop-color="#E4E5E7"/>
<stop offset="0.765625" stop-color="#E4E5E7" stop-opacity="0"/>
</linearGradient>
</defs>
</svg>
