<svg width="24" height="24" viewBox="0 0 24 24" fill="none" xmlns="http://www.w3.org/2000/svg">
<g filter="url(#filter0_d_4083_107065)">
<path d="M14.4555 4.6966C14.2897 4.6966 14.1308 4.63076 14.0135 4.51355L12.4418 2.94185C12.1978 2.69777 11.802 2.69777 11.558 2.94185L9.98626 4.51355C9.86905 4.63076 9.71008 4.6966 9.54432 4.6966H7.3216C6.97643 4.6966 6.6966 4.97643 6.6966 5.3216V7.54432C6.6966 7.71008 6.63076 7.86905 6.51355 7.98626L4.94185 9.55796C4.69777 9.80204 4.69777 10.1978 4.94185 10.4418L6.51355 12.0135C6.63076 12.1308 6.6966 12.2897 6.6966 12.4555V14.6782C6.6966 15.0234 6.97643 15.3032 7.3216 15.3032H9.54432C9.71008 15.3032 9.86905 15.3691 9.98626 15.4863L11.558 17.058C11.802 17.302 12.1978 17.302 12.4418 17.058L14.0135 15.4863C14.1308 15.3691 14.2897 15.3032 14.4555 15.3032H16.6782C17.0234 15.3032 17.3032 15.0234 17.3032 14.6782V12.4555C17.3032 12.2897 17.3691 12.1308 17.4863 12.0135L19.058 10.4418C19.302 10.1978 19.302 9.80204 19.058 9.55796L17.4863 7.98626C17.3691 7.86905 17.3032 7.71008 17.3032 7.54432V5.3216C17.3032 4.97643 17.0234 4.6966 16.6782 4.6966H14.4555Z" fill="#35B9E9"/>
<path fill-rule="evenodd" clip-rule="evenodd" d="M15.3582 8.35874L11.1662 12.5507L9.05762 10.4421L9.9415 9.55819L11.1662 10.7829L14.4743 7.47485L15.3582 8.35874Z" fill="white"/>
</g>
<defs>
<filter id="filter0_d_4083_107065" x="-2" y="-2" width="28" height="28" filterUnits="userSpaceOnUse" color-interpolation-filters="sRGB">
<feFlood flood-opacity="0" result="BackgroundImageFix"/>
<feColorMatrix in="SourceAlpha" type="matrix" values="0 0 0 0 0 0 0 0 0 0 0 0 0 0 0 0 0 0 127 0" result="hardAlpha"/>
<feOffset dy="2"/>
<feGaussianBlur stdDeviation="2"/>
<feColorMatrix type="matrix" values="0 0 0 0 0.105882 0 0 0 0 0.109804 0 0 0 0 0.113725 0 0 0 0.04 0"/>
<feBlend mode="normal" in2="BackgroundImageFix" result="effect1_dropShadow_4083_107065"/>
<feBlend mode="normal" in="SourceGraphic" in2="effect1_dropShadow_4083_107065" result="shape"/>
</filter>
</defs>
</svg>
